<?xml version="1.0" standalone="no"?>
<!DOCTYPE svg PUBLIC "-//W3C//DTD SVG 20010904//EN"
 "http://www.w3.org/TR/2001/REC-SVG-20010904/DTD/svg10.dtd">
<svg version="1.0" xmlns="http://www.w3.org/2000/svg"
 width="1366.000000pt" height="768.000000pt" viewBox="0 0 1366.000000 768.000000"
 preserveAspectRatio="xMidYMid meet">

<g transform="translate(0.000000,768.000000) scale(0.100000,-0.100000)"
fill="#000000" stroke="none">
<path d="M6091 4624 c-48 -14 -122 -69 -150 -111 -12 -18 -20 -35 -19 -38 2
-2 -7 -12 -20 -20 -12 -9 -20 -21 -17 -26 4 -5 2 -9 -3 -9 -13 0 -44 -68 -37
-80 12 -19 34 -9 62 28 15 20 56 70 91 109 54 61 73 75 115 88 61 18 139 19
184 3 18 -6 36 -9 39 -5 14 14 -29 45 -84 61 -62 17 -103 17 -161 0z"/>
<path d="M7183 4623 c-39 -13 -64 -45 -49 -60 3 -3 32 0 64 7 47 9 71 10 117
0 87 -18 114 -35 180 -113 33 -38 72 -84 87 -101 14 -17 30 -27 34 -23 16 15
-98 207 -140 237 -64 46 -112 63 -181 65 -40 1 -88 -4 -112 -12z"/>
<path d="M6120 4409 c-40 -9 -77 -50 -86 -96 -14 -75 64 -152 140 -137 74 13
124 101 93 160 -31 60 -84 86 -147 73z"/>
<path d="M7286 4410 c-69 -21 -109 -100 -83 -163 16 -38 58 -69 100 -73 34 -4
97 28 117 59 57 92 -31 208 -134 177z"/>
<path d="M6684 3828 c-3 -4 -11 -5 -19 -2 -27 11 -126 -26 -163 -61 -35 -32
-37 -37 -37 -97 0 -57 4 -68 35 -108 46 -59 114 -121 168 -150 26 -15 42 -30
40 -39 -2 -9 -32 -35 -68 -58 -36 -23 -73 -49 -82 -57 -26 -23 -70 -44 -109
-51 -41 -8 -79 17 -99 65 -7 16 -16 30 -21 30 -5 0 -9 8 -9 19 0 10 -7 24 -15
31 -8 7 -15 19 -15 27 0 16 -24 43 -38 43 -5 0 -12 9 -15 20 -3 11 -12 20 -21
20 -9 0 -16 5 -16 12 0 6 -3 8 -6 5 -4 -3 -16 0 -28 8 -27 20 -97 19 -122 -1
-13 -11 -15 -17 -6 -20 6 -3 12 -14 12 -24 0 -36 22 -67 66 -95 56 -35 87 -67
131 -130 86 -127 103 -151 112 -162 6 -7 11 -15 11 -18 0 -4 18 -32 40 -62
l40 -56 0 39 c0 61 27 135 63 172 17 19 60 52 95 75 34 23 62 47 62 53 0 18
78 84 99 84 19 0 47 -20 144 -104 31 -27 78 -61 104 -75 56 -31 79 -68 99
-164 8 -39 16 -73 18 -75 3 -2 13 9 23 25 10 15 25 36 34 46 41 45 90 128 111
187 13 36 28 71 33 79 21 29 74 77 119 109 60 43 75 72 52 106 -9 14 -16 28
-16 31 0 9 37 5 79 -10 49 -17 53 -12 9 15 -76 46 -188 12 -268 -81 -42 -49
-100 -133 -100 -145 0 -15 -67 -74 -90 -79 -53 -12 -138 32 -212 108 -75 77
-75 70 0 118 17 11 32 25 32 30 0 5 6 9 13 9 20 0 84 71 102 112 36 88 7 166
-82 215 -59 33 -273 56 -289 31z m336 -203 c10 -12 8 -16 -12 -24 -14 -5 -46
-30 -73 -55 -65 -63 -80 -61 -51 7 31 74 103 112 136 72z m-411 -32 c41 -24
80 -103 50 -103 -5 0 -24 13 -42 30 -18 16 -36 30 -41 30 -21 0 -86 36 -86 48
0 19 83 15 119 -5z"/>
</g>
</svg>
